<!-- Generated by IcoMoon.io -->
<svg version="1.1" xmlns="http://www.w3.org/2000/svg" width="2722" height="1024" viewBox="0 0 2722 1024">
<path fill="#ffffff" d="M74.245 281.946h150.201q33.116 0 61.853 7.157v0 0q28.63 7.264 49.89 23.393v0 0q21.152 16.237 33.33 42.197v0 0q12.179 26.066 12.179 63.456v0 0q0 41.77-13.994 68.157v0 0q-13.994 26.387-37.925 41.662v0 0q-23.822 15.383-55.337 21.046v0 0q-31.621 5.661-66.661 5.661v0 0q-19.016 0-37.176-1.282v0 0q-18.267-1.389-34.292-2.991v0 211.627h-62.067v-480.085zM136.312 332.048v168.256q16.024 2.030 33.544 3.205v0 0q17.626 1.175 35.253 1.175v0 0q25.426 0 46.577-3.205v0 0q21.259-3.205 36.214-12.499v0 0q15.062-9.401 23.393-26.387v0 0q8.332-17.092 8.332-44.44v0 0q0-24.997-7.050-41.557v0 0q-6.944-16.558-19.443-26.493v0 0q-12.607-10.042-30.126-14.101v0 0q-17.519-3.953-38.565-3.953v0h-88.132zM604.754 407.148v0 0q16.344 0 34.078 2.564v0 0q17.626 2.457 34.719 9.508v0 0q16.987 7.264 32.156 19.87v0 0q15.169 12.499 26.921 32.475v0 0q11.644 20.404 18.374 48.927v0 0q6.623 28.523 6.623 67.943v0 0q0 39.42-6.623 67.943v0 0q-6.73 28.523-18.374 48.607v0 0q-11.751 20.298-26.921 33.009v0 0q-15.169 12.713-32.156 19.656v0 0q-17.092 7.371-34.719 9.935v0 0q-17.734 2.457-34.078 2.457v0 0q-16.024 0-33.544-2.457v0 0q-17.519-2.564-34.612-9.935v0 0q-16.987-6.944-32.050-19.656v0 0q-14.954-12.713-26.707-33.009v0 0q-11.644-20.084-18.374-48.607v0 0q-6.623-28.523-6.623-67.943v0 0q0-39.42 6.623-67.943v0 0q6.73-28.523 18.374-48.927v0 0q11.751-19.977 26.707-32.475v0 0q15.062-12.607 32.050-19.87v0 0q17.092-7.050 34.398-9.508v0 0q17.413-2.564 33.757-2.564zM604.754 454.259v0 0q-19.016 0-35.896 5.982v0 0q-16.879 5.982-29.591 21.046v0 0q-13.034 15.383-20.618 41.022v0 0q-7.691 25.745-7.691 66.127v0 0q0 40.061 7.691 65.913v0 0q7.584 25.852 20.618 40.916v0 0q12.713 15.383 29.591 21.152v0 0q16.879 5.875 35.896 5.875v0 0q19.336 0 36.535-5.875v0 0q17.199-5.768 30.233-21.152v0 0q13.034-15.062 20.512-40.916v0 0q7.478-25.852 7.478-65.913v0 0q0-40.382-7.478-66.127v0 0q-7.478-25.639-20.512-41.022v0 0q-13.034-15.062-30.233-21.046v0 0q-17.199-5.982-36.535-5.982zM906.543 495.282h2.991q10.362-20.725 22.221-37.39v0 0q11.859-16.665 26.173-28.417v0 0q13.034-11.324 28.737-16.771v0 0q15.704-5.554 35.68-5.554v0 0q6.73 0 15.489 0.64v0 0q8.866 0.748 16.879 2.351v0 0q-1.282 16.665-3.099 31.408v0 0q-1.923 14.635-4.914 29.699v0 0q-16.665-2.991-30.553-4.381v0 0q-13.781-1.282-26.173 0.748v0 0q-14.635 2.673-25.531 9.83v0 0q-10.896 7.157-20.084 19.016v0 0q-9.080 11.859-17.84 28.417v0 0q-8.653 16.452-19.016 37.817v0 199.341h-57.366v-213.977q0-21.046-0.534-37.069v0 0q-0.534-16.024-2.030-30.553v0 0q-1.496-14.528-4.487-28.737v0 0q-2.991-14.207-8.012-31.515v0 0q13.994-3.633 27.561-6.73v0 0q13.461-2.991 27.561-5.661v0 0q4.594 13.354 7.478 23.715v0 0q2.885 10.362 4.487 20.191v0 0q1.709 9.83 2.564 20.084v0 0q0.748 10.149 1.816 23.501v0zM1155.88 414.839v-79.48h57.474v79.48h116.763v48.394h-116.763v199.341q0 19.977 1.175 30.553v0 0q1.175 10.469 5.768 16.452v0 0q8.76 12.072 35.039 12.072v0 0q14.741 0 28.417-2.991v0 0q13.994-2.991 25.745-6.73v0 0q9.294 20.404 16.987 44.761v0 0q-39.42 13.354-79.48 13.354v0 0q-29.057 0-46.577-6.517v0 0q-17.519-6.517-27.455-21.152v0 0q-10.362-15.383-13.781-36.749v0 0q-3.312-21.366-3.312-59.077v0-183.317h-50.103v-48.394h50.103zM1390.902 414.839h58.115v-37.71q0-24.676 4.7-42.731v0 0q4.594-18.054 16.344-33.436v0 0q11.644-15.276 34.184-23.181v0 0q22.542-7.797 55.551-7.797v0 0q43.158 0 102.555 14.314v0l-10.362 47.112q-56.086-11.751-85.463-11.751v0 0q-14.314 0-24.249 1.496v0 0q-9.83 1.496-16.452 6.089v0 0q-6.73 4.487-10.362 9.508v0 0q-3.739 5.020-5.554 14.954v0 0q-1.816 10.042-2.351 19.016v0 0q-0.427 9.080-0.427 25.104v0 19.016h111.422v48.394h-111.422v250.405h111.422v48.394h-227.65v-48.394h58.115v-250.405h-58.115v-48.394zM1847.592 407.148v0 0q16.344 0 34.078 2.564v0 0q17.734 2.457 34.719 9.508v0 0q16.987 7.264 32.156 19.87v0 0q15.276 12.499 26.921 32.475v0 0q11.644 20.404 18.374 48.927v0 0q6.623 28.523 6.623 67.943v0 0q0 39.42-6.623 67.943v0 0q-6.73 28.523-18.374 48.607v0 0q-11.644 20.298-26.921 33.009v0 0q-15.169 12.713-32.156 19.656v0 0q-16.987 7.371-34.719 9.935v0 0q-17.734 2.457-34.078 2.457v0 0q-16.024 0-33.544-2.457v0 0q-17.519-2.564-34.505-9.935v0 0q-17.092-6.944-32.050-19.656v0 0q-15.062-12.713-26.707-33.009v0 0q-11.751-20.084-18.374-48.607v0 0q-6.73-28.523-6.73-67.943v0 0q0-39.42 6.73-67.943v0 0q6.623-28.523 18.374-48.927v0 0q11.644-19.977 26.707-32.475v0 0q14.954-12.607 32.050-19.87v0 0q16.987-7.050 34.398-9.508v0 0q17.306-2.564 33.65-2.564zM1847.592 454.259v0 0q-19.016 0-35.896 5.982v0 0q-16.879 5.982-29.485 21.046v0 0q-13.034 15.383-20.725 41.022v0 0q-7.691 25.745-7.691 66.127v0 0q0 40.061 7.691 65.913v0 0q7.691 25.852 20.725 40.916v0 0q12.607 15.383 29.485 21.152v0 0q16.879 5.875 35.896 5.875v0 0q19.336 0 36.535-5.875v0 0q17.199-5.768 30.233-21.152v0 0q13.034-15.062 20.512-40.916v0 0q7.584-25.852 7.584-65.913v0 0q0-40.382-7.584-66.127v0 0q-7.478-25.639-20.512-41.022v0 0q-13.034-15.062-30.233-21.046v0 0q-17.199-5.982-36.535-5.982zM2138.058 281.946v345.162q0 27.455 0.64 45.936v0 0q0.64 18.588 1.709 32.583v0 0q0.961 13.994 3.099 25.318v0 0q2.244 11.431 5.554 25.104v0 0q-13.994 3.633-27.989 6.836v0 0q-14.101 3.205-28.096 5.448v0 0q-6.623-21.686-9.508-39.74v0 0q-2.885-17.947-2.885-35.36v0-411.287h57.474zM2282.275 280.343v0 0q15.383 0 26.707 10.683v0 0q11.004 11.644 11.004 27.348v0 0q0 16.024-11.004 27.027v0 0q-11.324 11.324-26.707 11.324v0 0q-16.024 0-27.348-11.324v0 0q-11.431-10.683-11.431-27.027v0 0q0-16.024 11.431-27.348v0 0q11.324-10.683 27.348-10.683zM2252.897 762.031v-347.19h57.366v347.19h-57.366zM2559.065 407.148v0 0q16.344 0 33.971 2.564v0 0q17.734 2.457 34.719 9.508v0 0q17.092 7.264 32.263 19.87v0 0q15.169 12.499 26.814 32.475v0 0q11.751 20.404 18.374 48.927v0 0q6.73 28.523 6.73 67.943v0 0q0 39.42-6.73 67.943v0 0q-6.623 28.523-18.374 48.607v0 0q-11.644 20.298-26.814 33.009v0 0q-15.169 12.713-32.263 19.656v0 0q-16.987 7.371-34.719 9.935v0 0q-17.626 2.457-33.971 2.457v0 0q-16.024 0-33.65-2.457v0 0q-17.519-2.564-34.505-9.935v0 0q-16.987-6.944-32.050-19.656v0 0q-15.062-12.713-26.707-33.009v0 0q-11.644-20.084-18.374-48.607v0 0q-6.623-28.523-6.623-67.943v0 0q0-39.42 6.623-67.943v0 0q6.73-28.523 18.374-48.927v0 0q11.644-19.977 26.707-32.475v0 0q15.062-12.607 32.050-19.87v0 0q16.987-7.050 34.398-9.508v0 0q17.306-2.564 33.757-2.564zM2559.065 454.259v0 0q-19.122 0-35.896 5.982v0 0q-16.879 5.982-29.591 21.046v0 0q-13.034 15.383-20.725 41.022v0 0q-7.691 25.745-7.691 66.127v0 0q0 40.061 7.691 65.913v0 0q7.691 25.852 20.725 40.916v0 0q12.713 15.383 29.591 21.152v0 0q16.771 5.875 35.896 5.875v0 0q19.336 0 36.535-5.875v0 0q17.199-5.768 30.233-21.152v0 0q12.926-15.062 20.512-40.916v0 0q7.478-25.852 7.478-65.913v0 0q0-40.382-7.478-66.127v0 0q-7.584-25.639-20.512-41.022v0 0q-13.034-15.062-30.233-21.046v0 0q-17.199-5.982-36.535-5.982z"></path>
</svg>
